<svg width="139" height="78" viewBox="0 0 139 78" fill="none" xmlns="http://www.w3.org/2000/svg">
<g clip-path="url(#clip0)">
<path d="M101.622 78C97.7792 77.4893 94.084 77.0548 90.5368 76.6967L91.9028 74.3774C91.4286 74.2433 89.374 75.585 89.374 75.585L91.1125 68.8765C88.7419 69.1448 87.6356 75.9875 87.6356 75.9875L84.9488 73.7066L86.2714 76.289C75.4167 75.3207 66.0501 75.0186 58.1765 75.0879L59.3456 73.1028C58.8715 72.9687 56.8169 74.3104 56.8169 74.3104L58.5554 67.6018C56.1847 67.8702 55.0784 74.7129 55.0784 74.7129L52.3917 72.432L53.7925 75.1672C48.3991 75.3002 43.0173 75.6681 37.6684 76.2695C38.835 73.1841 42.909 70.2181 42.909 70.2181C39.7765 71.0455 38.1468 72.3934 37.3033 73.6428C37.1327 67.3041 38.2813 60.9895 40.6964 54.9898C40.6964 54.9898 34.3746 67.0652 35.3229 75.1154L35.4432 76.5454C29.9434 77.2738 27.1836 78 27.1836 78H101.622Z" fill="#3F3D56"/>
<path d="M116.111 61.3811C115.736 61.3811 115.369 61.2867 115.057 61.1098C114.745 60.9328 114.502 60.6814 114.359 60.3872C114.215 60.093 114.177 59.7693 114.251 59.457C114.324 59.1446 114.504 58.8578 114.77 58.6326C115.035 58.4074 115.373 58.2541 115.741 58.1919C116.109 58.1298 116.49 58.1617 116.837 58.2836C117.183 58.4054 117.479 58.6118 117.688 58.8766C117.896 59.1413 118.007 59.4526 118.007 59.7711C118.007 60.1979 117.807 60.6072 117.451 60.909C117.096 61.2108 116.614 61.3806 116.111 61.3811ZM116.111 58.4294C115.798 58.4294 115.493 58.508 115.233 58.6555C114.973 58.8029 114.77 59.0124 114.651 59.2576C114.531 59.5028 114.5 59.7725 114.561 60.0328C114.622 60.2931 114.772 60.5321 114.993 60.7198C115.214 60.9074 115.496 61.0352 115.802 61.087C116.109 61.1387 116.427 61.1122 116.716 61.0106C117.004 60.9091 117.251 60.7371 117.425 60.5165C117.599 60.2958 117.691 60.0364 117.691 59.7711C117.691 59.4153 117.524 59.0743 117.228 58.8228C116.932 58.5712 116.53 58.4297 116.111 58.4294Z" fill="#3F3D56"/>
<path d="M131.256 77.7888H128.136V75.1401H131.256V77.7888ZM128.376 77.5851H131.016V75.3439H128.376V77.5851Z" fill="#3F3D56"/>
<path d="M25.6259 77.9337L23.4978 75.9967L25.7794 74.1901L27.9074 76.127L25.6259 77.9337ZM23.837 76.0068L25.6377 77.6457L27.5682 76.117L25.7676 74.4781L23.837 76.0068Z" fill="#3F3D56"/>
<path d="M139 77.6392H3.42517V77.9076H139V77.6392Z" fill="#3F3D56"/>
<path d="M87.4735 17.9466V26.7589C87.4733 26.8404 87.4351 26.9184 87.3673 26.9759C87.2994 27.0335 87.2075 27.066 87.1116 27.0662H86.854V72.9726C86.8539 74.2429 86.2595 75.4612 85.2014 76.3594C84.1433 77.2577 82.7082 77.7624 81.2118 77.7624H47.4235C46.6827 77.7624 45.9491 77.6384 45.2647 77.3977C44.5803 77.1569 43.9584 76.8041 43.4346 76.3593C42.9108 75.9145 42.4954 75.3865 42.212 74.8054C41.9286 74.2243 41.7828 73.6015 41.7829 72.9726V28.6762H41.5964C41.5288 28.6763 41.4638 28.6536 41.4158 28.6131C41.3678 28.5726 41.3407 28.5176 41.3404 28.4602V23.4449C41.3404 23.4164 41.347 23.3881 41.3599 23.3617C41.3727 23.3354 41.3916 23.3114 41.4154 23.2912C41.4392 23.271 41.4674 23.255 41.4984 23.2441C41.5295 23.2332 41.5628 23.2276 41.5964 23.2276H41.7829V21.3384H41.5948C41.5238 21.3382 41.4558 21.3141 41.4057 21.2713C41.3557 21.2285 41.3276 21.1707 41.3278 21.1104V16.1635C41.3279 16.1034 41.3561 16.0458 41.4062 16.0033C41.4562 15.9608 41.5241 15.9369 41.5948 15.9368H41.7829V13.358H41.5917C41.5605 13.358 41.5297 13.3529 41.5009 13.3427C41.4721 13.3326 41.446 13.3178 41.424 13.2991C41.4019 13.2804 41.3845 13.2582 41.3726 13.2338C41.3607 13.2094 41.3546 13.1832 41.3546 13.1567V10.4572C41.3545 10.4037 41.3794 10.3523 41.4238 10.3143C41.4682 10.2763 41.5286 10.2549 41.5917 10.2546H41.7829V4.78854C41.783 3.51855 42.3773 2.3006 43.4351 1.40258C44.4929 0.504566 45.9276 4.62563e-05 47.4235 0H81.2118C82.708 -5.74134e-06 84.1428 0.504454 85.2009 1.40244C86.259 2.30043 86.8536 3.51841 86.854 4.78854V17.6394H87.1116C87.2075 17.6396 87.2994 17.672 87.3673 17.7296C87.4351 17.7872 87.4733 17.8652 87.4735 17.9466Z" fill="#3F3D56"/>
<path d="M65.9456 2.45624H60.4552C60.2333 2.45624 60.0535 2.60893 60.0535 2.79728V3.20015C60.0535 3.3885 60.2333 3.5412 60.4552 3.5412H65.9456C66.1675 3.5412 66.3473 3.3885 66.3473 3.20015V2.79728C66.3473 2.60893 66.1675 2.45624 65.9456 2.45624Z" fill="#E6E8EC"/>
<path d="M68.0238 3.61409C68.4242 3.61409 68.7487 3.33856 68.7487 2.99869C68.7487 2.65882 68.4242 2.3833 68.0238 2.3833C67.6235 2.3833 67.299 2.65882 67.299 2.99869C67.299 3.33856 67.6235 3.61409 68.0238 3.61409Z" fill="#E6E8EC"/>
<path d="M84.1524 5.73586V73.3698C84.1529 73.8095 84.0406 74.2441 83.8233 74.6433C83.6061 75.0425 83.2891 75.3968 82.8943 75.6815C82.2467 76.1501 81.4236 76.4075 80.5726 76.4074H48.2289C47.6534 76.4081 47.0862 76.2908 46.5757 76.0653C46.4558 76.0131 46.3397 75.9549 46.228 75.8908C45.7419 75.6124 45.3437 75.2369 45.0685 74.7974C44.7932 74.3578 44.6492 73.8676 44.6492 73.3698V5.73586C44.6491 5.33677 44.7417 4.94159 44.9216 4.57288C45.1015 4.20417 45.3652 3.86915 45.6976 3.58695C46.03 3.30475 46.4246 3.0809 46.859 2.92819C47.2933 2.77547 47.7588 2.69688 48.2289 2.6969H53.0698V3.22419C53.0698 3.88783 53.3803 4.52429 53.9331 4.99356C54.4859 5.46283 55.2356 5.72646 56.0173 5.72646H72.4666C73.2483 5.72646 73.998 5.46283 74.5508 4.99356C75.1035 4.52429 75.4141 3.88783 75.4141 3.22419V2.6969H80.5726C81.0428 2.69677 81.5083 2.77529 81.9427 2.92796C82.3771 3.08064 82.7718 3.30448 83.1042 3.5867C83.4367 3.86892 83.7003 4.20398 83.8802 4.57274C84.06 4.94151 84.1525 5.33674 84.1524 5.73586Z" fill="#536DFE"/>
<path opacity="0.3" d="M84.1524 63.688V73.3698C84.1529 73.8095 84.0406 74.2441 83.8233 74.6433C83.6061 75.0425 83.2891 75.3968 82.8943 75.6815C82.2467 76.1501 81.4236 76.4075 80.5726 76.4074H48.2289C47.6534 76.4081 47.0862 76.2908 46.5757 76.0653C46.4558 76.0131 46.3397 75.9549 46.228 75.8908C45.7419 75.6124 45.3437 75.2369 45.0685 74.7974C44.7932 74.3578 44.6492 73.8676 44.6492 73.3698V63.6921C50.0727 59.5534 57.1073 57.2634 64.3999 57.2626C71.6924 57.2619 78.7277 59.5504 84.1524 63.688Z" fill="white"/>
<path opacity="0.3" d="M82.2289 76.0626C81.7181 76.2903 81.1495 76.4087 80.5726 76.4074H48.2288C47.6533 76.4081 47.0862 76.2908 46.5757 76.0653C48.0399 73.0757 50.5143 70.5212 53.6867 68.7241C56.8591 66.9271 60.5874 65.9679 64.4012 65.9676C68.2151 65.9673 71.9435 66.9259 75.1163 68.7225C78.2891 70.5191 80.764 73.0732 82.2289 76.0626Z" fill="white"/>
<path opacity="0.3" d="M75.1896 76.2249C74.8805 76.3627 74.5365 76.4344 74.1874 76.4336H54.6153C54.2671 76.434 53.9239 76.363 53.615 76.2265C54.501 74.4175 55.9984 72.8717 57.9181 71.7843C59.8378 70.6968 62.0938 70.1164 64.4017 70.1162C66.7095 70.116 68.9657 70.6961 70.8856 71.7833C72.8055 72.8705 74.3032 74.416 75.1896 76.2249Z" fill="white"/>
<path d="M72.6286 28.8803C69.3841 28.8803 65.8235 28.3558 63.0438 26.5859C59.1737 24.1219 54.4056 24.2534 51.0872 24.7977C48.883 25.1623 46.7436 25.7673 44.7221 26.5976L44.5759 26.3597C46.6221 25.5185 48.7877 24.9054 51.019 24.5356C54.4026 23.9796 59.2684 23.8468 63.2335 26.3713C70.6615 31.1008 83.9622 26.853 84.0956 26.8097L84.2089 27.0603C81.7146 27.815 79.1349 28.3481 76.5111 28.6511C75.2243 28.8001 73.9273 28.8767 72.6286 28.8803Z" fill="white"/>
<path opacity="0.3" d="M44.6475 26.4786C44.6475 26.4786 55.5525 24.2363 63.1387 27.3064C70.7248 30.3764 84.1586 27.2836 84.1586 27.2836" fill="white"/>
<path opacity="0.3" d="M54.9426 29.9618C53.6253 29.9568 52.3115 29.8454 51.019 29.6292C48.7877 29.2593 46.6221 28.6462 44.5759 27.8051L44.7221 27.5672C46.7436 28.3975 48.883 29.0025 51.0872 29.3671C54.4055 29.9113 59.1737 30.0429 63.0438 27.5788C67.0054 25.0564 72.5545 25.0635 76.5111 25.5137C79.1349 25.8166 81.7146 26.3498 84.2089 27.1045L84.0956 27.355C83.9621 27.3116 70.6617 23.0638 63.2335 27.7934C60.6333 29.449 57.6455 29.9618 54.9426 29.9618Z" fill="white"/>
<path opacity="0.3" d="M54.9964 28.8813C49.5227 28.8813 44.6618 27.2142 44.5889 27.1888L44.7093 26.9406C44.8174 26.9785 55.6283 30.6839 63.0582 26.9492C70.6166 23.1496 84.0632 26.5412 84.1981 26.5759L84.1064 26.8328C83.9729 26.7984 70.658 23.4408 63.2192 27.1801C60.6806 28.4562 57.7602 28.8813 54.9964 28.8813Z" fill="white"/>
<path opacity="0.3" d="M44.6492 26.8583C44.6492 26.8583 55.5526 29.9284 63.1388 26.8583C70.7249 23.7882 84.1523 26.5682 84.1523 26.5682" fill="white"/>
<path d="M86.9669 35.0721V38.9836C86.9669 38.9836 87.3355 43.3644 89.3628 45.5548C89.3628 45.5548 92.6801 49.5445 93.1409 48.684L92.5734 45.8509L90.6529 44.3031L89.6392 39.453L89.3628 35.0721H86.9669Z" fill="#FFB8B8"/>
<path d="M107.332 70.4315V73.3259L104.567 74.1865V70.8226L107.332 70.4315Z" fill="#FFB8B8"/>
<path d="M101.711 70.1187L103.554 73.6389L100.974 74.5777L100.421 71.1357L101.711 70.1187Z" fill="#FFB8B8"/>
<path d="M106.318 43.1297C106.318 43.1297 110.004 71.3703 108.622 71.4485C107.24 71.5267 104.567 73.0131 104.567 71.9961C104.567 70.9791 102.448 57.7585 102.448 57.7585L100.421 50.9526V60.34L102.54 70.9791C102.54 70.9791 100.513 73.2478 99.0384 71.9179L95.9054 61.5134C95.9054 61.5134 91.7587 45.7112 91.943 44.4596C91.943 44.4596 101.434 37.5754 106.318 43.1297Z" fill="#2F2E41"/>
<path d="M105.581 73.4825C105.581 73.4825 106.318 72.1526 107.977 73.0131L109.359 74.4212C109.359 74.4212 112.923 76.9266 110.394 77.4633C107.788 78.0165 106.226 77.428 106.226 77.428C106.226 77.428 105.765 77.1933 105.397 77.1933C105.028 77.1933 104.199 76.6457 104.199 76.4893C104.199 76.3328 104.475 73.5607 104.475 73.5607C104.58 73.5175 104.697 73.5019 104.812 73.5158C104.927 73.5298 105.034 73.5726 105.12 73.6389C105.397 73.8736 105.581 73.4825 105.581 73.4825Z" fill="#2F2E41"/>
<path d="M100.144 73.0131C100.144 73.0131 101.895 71.8396 102.724 73.1695C102.724 73.1695 103.247 73.326 103.308 73.1695C103.369 73.0131 103.83 72.9348 103.83 73.7953C103.83 74.6559 104.331 76.8021 103.87 76.8804C103.409 76.9586 102.948 77.1933 103.04 77.5062C103.133 77.8191 102.54 77.8632 100.421 77.785C98.3013 77.7068 98.2091 77.0027 98.2091 77.0027C98.2091 77.0027 98.2091 75.9858 98.762 75.4382C99.3149 74.8906 100.144 73.0131 100.144 73.0131Z" fill="#2F2E41"/>
<path d="M96.7347 21.7732C96.7347 21.7732 96.2739 24.6677 99.2227 25.6846C102.171 26.7016 92.6801 30.0654 91.7586 28.1097C90.8372 26.154 91.9429 25.5282 91.9429 25.5282C91.9429 25.5282 92.8644 24.7459 92.0351 22.6337L96.7347 21.7732Z" fill="#FFB8B8"/>
<path d="M93.786 23.8072C96.0252 23.8072 97.8405 22.2661 97.8405 20.3652C97.8405 18.4642 96.0252 16.9231 93.786 16.9231C91.5467 16.9231 89.7314 18.4642 89.7314 20.3652C89.7314 22.2661 91.5467 23.8072 93.786 23.8072Z" fill="#FFB8B8"/>
<path d="M98.4855 26.6234C98.4855 26.6234 95.721 27.8751 93.0487 26.9363C90.3764 25.9976 90.4685 30.0655 90.4685 30.0655L91.8508 33.1164L101.434 32.3341L100.789 27.6404L98.4855 26.6234Z" fill="#F2F2F2"/>
<path d="M97.1121 23.9467C97.6029 24.0351 98.0641 24.2161 98.4613 24.4763C98.8586 24.7365 99.1818 25.0693 99.407 25.45L103.83 26.6234L104.936 27.9533L103.646 37.5754C103.646 37.5754 106.042 39.5311 106.042 40.6263C106.042 41.7215 108.99 45.4765 107.516 45.0072C106.042 44.5378 103.369 42.895 103.369 42.895C103.369 42.895 96.6426 43.1297 94.5232 44.6942C92.4037 46.2588 91.5744 45.7894 91.5744 45.7894C91.5744 45.7894 89.3628 37.6536 89.2707 36.402C89.1786 35.1503 86.5984 27.6404 86.5984 27.6404L91.2058 25.45L92.3794 24.3196L95.629 28.7356L98.5777 25.6847C98.5777 25.6847 97.1208 24.712 97.1121 23.9467Z" fill="#F0F0F5"/>
<path d="M106.318 33.9769L106.871 36.4803C106.871 36.4803 109.359 44.3031 108.99 46.9629C108.99 46.9629 109.267 52.9083 107.7 52.2042C106.134 51.5002 106.963 47.1976 106.963 47.1976L104.752 39.453L103.554 34.9157L106.318 33.9769Z" fill="#FFB8B8"/>
<path d="M104.014 27.4839L104.936 27.9533C104.936 27.9533 108.438 34.1334 107.608 34.6028C106.779 35.0721 103.185 36.0891 103.185 36.0891L104.014 27.4839Z" fill="#F0F0F5"/>
<path d="M88.8098 27.6404L86.6443 27.6013L86.1376 28.3444L86.7826 35.9327L90.0999 36.5585L88.8098 27.6404Z" fill="#F0F0F5"/>
<path d="M97.0876 17.454L97.8184 17.2284C97.8184 17.2284 96.2903 15.9312 94.1643 16.044L94.7623 15.5364C94.7623 15.5364 93.3007 15.0852 91.9719 16.2696C91.2734 16.8922 90.4653 17.6241 89.9615 18.4485H89.1788L89.5055 19.0031L88.3622 19.5578L89.5356 19.4581C89.4245 19.9369 89.4627 20.4321 89.6466 20.8945L89.9124 21.5149C89.9124 21.5149 90.9754 19.7101 90.9754 19.4845V20.0485C90.9754 20.0485 91.7062 19.5409 91.7062 19.2025L92.1048 19.5973L92.3041 18.9769L94.7623 19.5973L94.3637 19.0897L95.8917 19.2589L95.2938 18.6385C95.2938 18.6385 97.0211 19.3717 97.0876 19.9921C97.154 20.6125 97.6101 21.4212 97.6101 21.4212L98.163 20.8736C98.163 20.8736 99.0143 18.3001 97.0876 17.454Z" fill="#2F2E41"/>
<path d="M97.1955 21.1083C97.3736 21.1083 97.518 20.7931 97.518 20.4043C97.518 20.0154 97.3736 19.7002 97.1955 19.7002C97.0173 19.7002 96.8729 20.0154 96.8729 20.4043C96.8729 20.7931 97.0173 21.1083 97.1955 21.1083Z" fill="#FFB8B8"/>
<path d="M6.58003 73.3934C8.54427 76.4859 12.7131 77.8134 12.7131 77.8134C12.7131 77.8134 13.6973 74.127 11.733 71.0345C9.76877 67.942 5.59994 66.6145 5.59994 66.6145C5.59994 66.6145 4.61579 70.3009 6.58003 73.3934Z" fill="#3F3D56"/>
<path d="M7.93012 72.3759C11.4764 74.1872 12.8422 77.7849 12.8422 77.7849C12.8422 77.7849 8.45831 78.4459 4.91204 76.6346C1.36578 74.8234 0 71.2257 0 71.2257C0 71.2257 4.38385 70.5647 7.93012 72.3759Z" fill="#536DFE"/>
<path opacity="0.3" d="M44.6492 26.4786C44.6492 26.4786 55.5526 21.6484 63.1388 26.4786C70.7249 31.3087 84.1523 26.935 84.1523 26.935" fill="white"/>
<path d="M64.4426 75.6285C65.4027 75.6285 66.1811 74.9677 66.1811 74.1526C66.1811 73.3375 65.4027 72.6768 64.4426 72.6768C63.4824 72.6768 62.7041 73.3375 62.7041 74.1526C62.7041 74.9677 63.4824 75.6285 64.4426 75.6285Z" fill="white"/>
</g>
<defs>
<clipPath id="clip0">
<rect width="139" height="78" fill="white"/>
</clipPath>
</defs>
</svg>
