<svg width="72" height="84" viewBox="0 0 72 84" fill="none" xmlns="http://www.w3.org/2000/svg">
<path d="M36 0C16.1495 0 4.0169e-07 13.0836 4.0169e-07 29.1656C-0.000327012 30.9425 0.199501 32.7158 0.597039 34.4638C0.598291 34.4772 0.598291 34.4905 0.600379 34.5039C0.649278 34.8382 0.734241 35.1684 0.854313 35.4908C1.8209 39.0176 3.59486 42.3694 6.08586 45.3756L6.0727 45.3823L25.7843 70.2108C25.4873 70.246 25.2158 70.3659 25.0195 70.5484C24.8231 70.7309 24.7149 70.964 24.7145 71.2053V80.2113C24.716 81.2158 25.2133 82.1788 26.0975 82.8891C26.9817 83.5994 28.1805 83.9989 29.4309 84H42.5678C43.8182 83.9989 45.017 83.5994 45.9012 82.8891C46.7854 82.1788 47.2828 81.2158 47.2842 80.2113V71.2051C47.2842 70.9392 47.1532 70.6841 46.9199 70.4955C46.6865 70.3069 46.3697 70.2001 46.0387 70.1985L66.2382 44.9996L66.2248 44.9928C70.0048 40.2734 72.01 34.7782 72 29.1663C72 13.0836 55.8503 0 36 0ZM47.1984 3.57581C52.5984 9.74938 56.0228 16.2227 57.3747 22.8197C58.33 27.501 58.2603 32.2804 57.1688 36.9425C56.3907 39.0853 53.8021 40.7575 51.2651 40.6716C50.4778 40.643 49.7055 40.4892 48.9927 40.2193C48.2799 39.9493 47.6408 39.5685 47.1123 39.0988C46.248 38.3505 45.7637 37.3693 45.7549 36.3484C45.7825 36.1622 45.8005 35.9736 45.8069 35.7824C45.8069 35.7517 45.8069 35.7213 45.8042 35.6911C46.3217 30.6052 46.2691 25.4922 45.647 20.4139C44.8021 13.8038 42.8913 7.68861 39.9677 2.20437C42.4345 2.44133 44.8601 2.90139 47.1984 3.57581ZM39.4937 70.1985H32.5063C32.1299 68.0097 31.4245 65.8657 30.4057 63.8133L41.5924 63.8171C40.5746 65.8684 39.8699 68.0111 39.4937 70.1985ZM39.9855 72.2117V74.4652H37.0051V72.2117H39.9855ZM34.4991 72.2117V74.4652H31.7399V72.2117H34.4991ZM38.4761 56.2436C37.6583 56.2922 36.8329 56.317 36 56.3179C35.2582 56.3179 34.5229 56.2961 33.7931 56.2575C31.935 50.9649 30.5089 45.5806 29.5238 40.1388C31.1542 41.3017 33.2344 41.9767 35.4128 42.0496L35.8127 42.0699C35.8269 42.0707 35.8411 42.0712 35.8544 42.0715C35.9778 42.0743 36.1009 42.0758 36.2236 42.0759C38.6598 42.0759 40.939 41.5089 42.6664 40.4882C41.8221 45.8251 40.4204 51.0955 38.4761 56.2436ZM39.752 58.1728C39.2026 59.3451 38.4946 60.8684 38.083 61.8027H37.2477L37.2586 58.3114C38.097 58.288 38.9281 58.2419 39.752 58.173V58.1728ZM34.7524 58.3114L34.7416 61.8008H33.9163C33.5047 60.8664 32.7972 59.3441 32.2482 58.1725C33.0747 58.2426 33.9095 58.289 34.7524 58.3116V58.3114ZM31.1161 56.0282C28.7678 55.7489 26.4639 55.2667 24.2445 54.59C24.0634 54.3828 23.9467 54.2545 23.9124 54.2177C23.9049 54.2095 23.8968 54.2009 23.8888 54.1931C23.8322 54.1352 18.3077 48.4201 15.5357 39.528C16.9479 40.3889 18.6646 40.8663 20.4371 40.891C20.5359 40.891 20.6351 40.8893 20.7339 40.886C23.0148 40.8215 25.1722 40.0373 26.7383 38.7034C27.6845 44.5545 29.1475 50.344 31.1161 56.0284V56.0282ZM29.4129 57.84C30.0185 59.1239 30.7519 60.6959 31.2531 61.8005H29.3515C28.4711 60.25 27.4848 58.7397 26.3971 57.2765C27.3861 57.4979 28.3914 57.6858 29.4129 57.84ZM40.7454 61.8037C41.2466 60.699 41.981 59.1252 42.587 57.84C43.6081 57.6864 44.6133 57.4984 45.6029 57.2758C44.5141 58.7404 43.5269 60.2522 42.6457 61.8043L40.7454 61.8037ZM41.1983 55.9904C43.0553 50.8907 44.3961 45.6788 45.2078 40.4055C45.2231 40.4194 45.2373 40.4337 45.2527 40.4475C46.0051 41.1153 46.9147 41.6567 47.9291 42.0404C48.9435 42.4241 50.0425 42.6425 51.1625 42.6829C51.258 42.6859 51.3528 42.6876 51.448 42.6876C52.9808 42.6702 54.4745 42.2964 55.7484 41.6112C52.8398 49.3034 48.1631 54.1399 48.112 54.1926C48.1036 54.2009 48.0957 54.2093 48.0878 54.2179C48.0535 54.2551 47.9368 54.383 47.7557 54.5901C45.6357 55.2371 43.4383 55.7066 41.1983 55.9911V55.9904ZM36.6492 2.01983C36.8104 2.0224 36.9713 2.02593 37.1318 2.0304C43.7788 13.8201 44.2397 26.7918 43.2281 36.3038C43.0516 37.1448 42.5307 37.9144 41.7482 38.4907C40.368 39.5387 38.2551 40.1104 35.949 40.0601L35.5506 40.0398C35.5364 40.0398 35.522 40.0386 35.5078 40.0383C32.3545 39.9645 29.5123 37.9452 28.8462 35.5423C28.0056 28.4125 28.1481 20.9928 30.1491 14.1004C32.2425 6.88957 35.5869 3.09064 36.6492 2.01983ZM33.4974 2.08878C31.8894 4.05409 29.4603 7.71847 27.767 13.444C26.211 18.7051 25.5952 24.648 25.9332 31.1076C25.9913 32.2136 26.0784 33.3357 26.1947 34.474C26.1947 34.5915 26.1982 34.7084 26.2051 34.825C26.1652 35.747 25.7151 36.6269 24.9365 37.305C24.3832 37.7821 23.7177 38.1665 22.9784 38.436C22.2392 38.7054 21.4408 38.8546 20.6294 38.8749C17.5774 38.9732 14.5169 36.7002 14.3243 34.191C14.3192 34.122 14.3052 34.0537 14.2825 33.987C13.7541 30.2652 13.8705 26.5026 14.6284 22.8065C15.9824 16.2135 19.4055 9.74569 24.802 3.57581C27.6037 2.7673 30.5287 2.26709 33.4974 2.08878ZM3.28528 34.9931C1.70661 29.1755 2.54013 23.1029 5.65869 17.7014C8.77724 12.3 14.0096 7.86628 20.5576 5.07676C16.1856 10.7085 13.3593 16.5672 12.1439 22.5352C11.3779 26.3031 11.2472 30.1366 11.7555 33.9325C11.757 33.9545 11.7576 33.9766 11.761 33.9996C11.9044 34.9832 11.602 35.9121 10.9315 36.548C10.2766 37.1688 9.31371 37.5085 8.0693 37.5573C5.43891 37.6581 3.84431 36.4018 3.28528 34.9931ZM4.83436 39.1144C5.7626 39.4252 6.75945 39.5821 7.76504 39.5756C7.90537 39.5756 8.04745 39.5728 8.19126 39.5672C9.97089 39.4976 11.4717 38.9895 12.5616 38.095C12.6821 38.5686 12.8089 39.042 12.9492 39.5151C14.3507 44.2436 16.6621 48.7675 19.8 52.9235C12.9774 49.8456 7.69002 44.9668 4.83436 39.1144ZM14.9379 52.8037C17.3094 54.1958 19.8848 55.3487 22.6062 56.2365C24.3835 58.3686 28.9569 64.3192 29.9778 70.1989H28.7487L14.9379 52.8037ZM29.234 72.2117V74.4652H27.2215V72.2117H29.234ZM44.7793 80.2111C44.7784 80.6819 44.5452 81.1331 44.1309 81.4659C43.7165 81.7988 43.1548 81.986 42.5689 81.9867H29.4315C28.8456 81.986 28.2838 81.7988 27.8695 81.4659C27.4551 81.1331 27.222 80.6819 27.2211 80.2111V76.4783H44.7789L44.7793 80.2111ZM44.7793 74.4652H42.4914V72.2117H44.7789L44.7793 74.4652ZM43.0584 70.1985H42.0222C43.0423 64.3189 47.6156 58.3681 49.3938 56.2362C52.0713 55.3629 54.6077 54.2329 56.9479 52.8709L43.0584 70.1985ZM52.1992 52.9235C55.2728 48.851 57.5534 44.425 58.962 39.7989C60.0252 40.7248 61.5327 41.25 63.3401 41.3188C63.4654 41.3236 63.5902 41.326 63.7145 41.326C64.5448 41.3296 65.3691 41.2143 66.149 40.9856C63.1336 46.0201 58.2638 50.1878 52.2 52.9235H52.1992ZM68.4518 35.8859C67.9986 37.1812 66.7868 39.3132 63.7204 39.3131C63.6354 39.3131 63.5485 39.3114 63.4606 39.308C62.2605 39.2624 61.3391 38.9435 60.7224 38.3602C60.0824 37.7549 59.8074 36.8839 59.9479 35.9057C59.9546 35.856 59.9566 35.806 59.9542 35.7561C60.7771 31.3766 60.7453 26.9208 59.86 22.5491C58.6461 16.5769 55.8186 10.7128 51.4442 5.07676C58.157 7.93765 63.4821 12.5239 66.5682 18.1024C69.6542 23.6809 70.3231 29.9295 68.4679 35.8493C68.4612 35.8616 68.4551 35.8733 68.4518 35.8859Z" fill="url(#paint0_linear)"/>
<defs>
<linearGradient id="paint0_linear" x1="36" y1="79.9514" x2="36" y2="19.4013" gradientUnits="userSpaceOnUse">
<stop offset="0.322" stop-color="#A163F5"/>
<stop offset="0.466" stop-color="#B074EE"/>
<stop offset="0.752" stop-color="#C682CC"/>
<stop offset="0.898" stop-color="#D9A3BD"/>
</linearGradient>
</defs>
</svg>
