<svg width="20" height="20" viewBox="0 0 20 20" fill="none" xmlns="http://www.w3.org/2000/svg">
<path fill-rule="evenodd" clip-rule="evenodd" d="M16.3774 3.61584C14.6853 1.92988 12.435 1.00099 10.0376 1C5.09762 1 1.07716 5.00111 1.07518 9.91881C1.07451 11.4908 1.48716 13.0254 2.27149 14.3781L1 19L5.75114 17.7596C7.06027 18.4703 8.53411 18.8449 10.034 18.8453H10.0378C14.9772 18.8453 18.9981 14.8439 19 9.92595C19.001 7.54258 18.0696 5.3017 16.3774 3.61584ZM10.0376 17.339H10.0346C8.69793 17.3384 7.38703 16.9809 6.24316 16.3056L5.97126 16.1449L3.15186 16.881L3.9044 14.1453L3.72722 13.8648C2.98153 12.6844 2.58776 11.3201 2.58842 9.91936C2.58997 5.8319 5.93174 2.50645 10.0406 2.50645C12.0303 2.5071 13.9007 3.27922 15.3071 4.68053C16.7135 6.08184 17.4875 7.94446 17.4869 9.9254C17.4851 14.0132 14.1435 17.339 10.0376 17.339ZM14.1237 11.7866C13.8998 11.675 12.7988 11.136 12.5934 11.0615C12.3883 10.9871 12.2389 10.9501 12.0897 11.1731C11.9404 11.3961 11.5113 11.8982 11.3806 12.0469C11.2499 12.1956 11.1194 12.2143 10.8954 12.1027C10.6714 11.9912 9.94988 11.7557 9.09446 10.9965C8.4288 10.4055 7.97939 9.67568 7.84869 9.45266C7.71821 9.22942 7.84759 9.12043 7.94694 8.99783C8.18936 8.69823 8.43211 8.38413 8.50673 8.23549C8.58147 8.08673 8.54405 7.95654 8.48797 7.84503C8.43211 7.73352 7.98425 6.63654 7.79769 6.19016C7.61576 5.75576 7.4313 5.81443 7.29375 5.80762C7.16327 5.80114 7.01391 5.79982 6.86455 5.79982C6.7153 5.79982 6.47266 5.85552 6.26733 6.07876C6.06211 6.30189 5.48366 6.84099 5.48366 7.93798C5.48366 9.03496 6.2861 10.0947 6.39804 10.2435C6.50997 10.3922 7.97719 12.6433 10.2235 13.6086C10.7578 13.8384 11.1749 13.9754 11.5002 14.0781C12.0367 14.2478 12.5248 14.2238 12.9107 14.1665C13.341 14.1024 14.2355 13.6272 14.4223 13.1067C14.6088 12.5861 14.6088 12.1399 14.5528 12.0469C14.4969 11.9539 14.3475 11.8982 14.1237 11.7866Z" fill="white"/>
</svg>
